<svg width="472" height="94" viewBox="0 0 472 94" fill="none" xmlns="http://www.w3.org/2000/svg">
<g clip-path="url(#clip0_2_215)">
<path d="M55.2326 4.90625V76.5856H39.6639V65.1288C38.646 68.7991 36.4266 72.0228 33.36 74.2852C30.2935 76.5475 26.5565 77.7181 22.746 77.61C8.09467 77.61 8.34465e-07 66.8271 8.34465e-07 51.0841C8.34465e-07 35.341 7.66295 24.3694 21.5858 24.3694C25.5869 24.2089 29.5268 25.3902 32.7783 27.7252C36.0299 30.0602 38.4061 33.4148 39.529 37.255V4.90625H55.2326ZM40.1765 51.0841C40.1765 42.4847 36.1832 38.495 27.6568 38.495C19.1304 38.495 15.5687 42.4847 15.5687 51.0841C15.5687 59.6834 19.4542 63.4844 27.6568 63.4844C35.8594 63.4844 40.1765 59.4947 40.1765 51.0841Z" fill="white"/>
<path d="M118.992 25.3936L98.4851 80.6829C95.3012 89.2823 89.8778 93.9998 77.1692 93.9998H66.9159V80.5212H82.7005L62.8146 25.5283H79.6245L88.043 53.8604L90.7412 64.212L93.4394 53.8604L102.182 25.3936H118.992Z" fill="white"/>
<path d="M176.383 46.6898V76.5855H160.733V47.6064C160.733 41.3523 157.846 38.4949 152.126 38.4949C145.974 38.4949 142.061 42.4845 142.061 51.7039V76.5855H126.574V25.3667H142.142V36.9313C144.598 28.5476 149.94 24.3423 158.332 24.3423C170.555 24.3692 176.383 31.6207 176.383 46.6898Z" fill="white"/>
<path d="M241.059 25.3938V76.6126H225.49V65.1288C224.473 68.7991 222.253 72.0228 219.187 74.2852C216.12 76.5476 212.383 77.7182 208.573 77.61C193.921 77.61 185.8 66.8271 185.8 51.0841C185.8 35.341 193.49 24.3694 207.547 24.3694C211.548 24.2089 215.488 25.3902 218.74 27.7252C221.991 30.0603 224.368 33.4148 225.49 37.255V25.3938H241.059ZM226.003 51.0841C226.003 42.4847 221.983 38.495 213.483 38.495C204.984 38.495 201.395 42.4847 201.395 51.0841C201.395 59.6834 205.281 63.4844 213.483 63.4844C221.686 63.4844 226.003 59.4947 226.003 51.0841Z" fill="white"/>
<path d="M338.438 46.69V76.5856H322.842V47.6065C322.842 41.7838 320.144 38.495 314.235 38.495C308.326 38.495 304.198 42.3768 304.198 53.7528V76.5856H288.629V47.6065C288.629 41.3525 285.742 38.495 279.995 38.495C274.247 38.495 269.957 42.4846 269.957 51.704V76.5856H254.388V25.3668H269.957V36.9315C272.413 28.5478 277.755 24.3424 286.146 24.3424C295.293 24.3424 300.906 28.4399 303.064 36.8236C304.322 33.0165 306.802 29.7301 310.119 27.4736C313.436 25.2171 317.406 24.1166 321.412 24.3424C332.988 24.3694 338.438 31.54 338.438 46.69Z" fill="white"/>
<path d="M351.255 25.3936H366.823V76.6124H351.255V25.3936Z" fill="white"/>
<path d="M400.119 39.0343V62.9993H413.26V76.6127H401.981C399.664 76.735 397.347 76.3663 395.182 75.5309C393.017 74.6954 391.054 73.4121 389.421 71.765C387.787 70.118 386.521 68.1445 385.705 65.9741C384.889 63.8037 384.542 61.4854 384.686 59.1714V39.0343H375.566V25.5557H414.366V39.0343H400.119Z" fill="white"/>
<path d="M471.892 55.9094H437.031C437.948 62.8643 441.24 65.7488 447.824 65.7488C452.735 65.7488 455.109 64.2122 457.565 59.279L470.894 63.9965C467.386 72.8116 459.723 77.4752 447.419 77.4752C431.527 77.4752 420.869 67.0427 420.869 51.2727C420.869 35.0983 431.311 24.3154 446.907 24.3154C461.963 24.3154 472 34.7479 472 50.5179C471.973 52.324 471.973 53.6449 471.892 55.9094ZM437.031 45.7734H456.62C456.62 38.2793 453.436 35.7183 447.176 35.7183C440.917 35.7183 437.841 38.6028 437.031 45.7734Z" fill="white"/>
<path d="M383.094 9.21938C383.094 3.26182 386.601 0 392.834 0C399.067 0 402.791 3.26182 402.791 9.21938C402.791 15.1769 399.202 18.7353 392.834 18.7353C386.466 18.7353 383.094 15.3387 383.094 9.21938Z" fill="#231F20"/>
</g>
<defs>
<clipPath id="clip0_2_215">
<rect width="472" height="94" fill="white"/>
</clipPath>
</defs>
</svg>
